<?xml version="1.0" standalone="no"?>
<!DOCTYPE svg PUBLIC "-//W3C//DTD SVG 20010904//EN"
 "http://www.w3.org/TR/2001/REC-SVG-20010904/DTD/svg10.dtd">
<svg version="1.0" xmlns="http://www.w3.org/2000/svg"
 width="458.000000pt" height="440.000000pt" viewBox="0 0 458.000000 440.000000"
 preserveAspectRatio="xMidYMid meet">
<metadata>
Created by potrace 1.16, written by Peter Selinger 2001-2019
</metadata>
<g transform="translate(0.000000,440.000000) scale(0.100000,-0.100000)"
fill="#000000" stroke="none">
<path d="M1870 4136 c0 -133 -1 -136 -22 -140 -13 -3 -63 -13 -113 -21 -232
-41 -501 -165 -690 -318 -77 -62 -240 -224 -304 -302 -244 -295 -406 -678
-457 -1079 -85 -664 284 -1287 960 -1620 279 -137 517 -194 847 -203 386 -11
679 52 1007 217 190 96 331 199 488 355 116 117 207 235 179 235 -8 0 -15 -7
-15 -16 0 -25 -197 -216 -280 -271 -259 -172 -511 -270 -812 -313 -264 -38
-615 -22 -818 37 -218 63 -344 115 -506 209 -172 99 -399 314 -487 461 -53 89
-112 219 -134 297 -23 81 -28 303 -9 421 83 542 435 1021 898 1223 90 40 262
91 271 82 3 -3 7 -75 10 -160 4 -91 10 -154 15 -153 6 1 63 35 128 74 66 40
153 91 195 113 119 64 410 235 454 268 22 16 86 56 143 90 56 33 102 63 102
67 0 3 -85 52 -188 108 -103 57 -297 164 -432 239 -135 75 -287 159 -337 186
l-93 50 0 -136z"/>
<path d="M2369 3277 c-18 -12 -40 -34 -47 -47 -19 -37 -10 -108 21 -157 15
-24 27 -47 27 -53 0 -7 -65 -8 -192 -4 -106 4 -249 7 -318 8 -69 1 -158 7
-199 14 -50 8 -78 9 -85 2 -13 -13 62 -45 144 -61 36 -6 91 -20 123 -30 33
-11 86 -19 127 -19 60 0 82 -5 144 -35 41 -19 83 -35 94 -35 67 0 116 -73 128
-191 8 -82 -5 -112 -88 -206 -33 -37 -78 -94 -99 -125 -67 -97 -148 -177 -228
-223 -85 -49 -128 -88 -192 -172 -24 -32 -65 -83 -91 -114 -27 -30 -48 -63
-48 -72 0 -19 49 -47 82 -47 39 0 51 14 43 50 -6 27 -2 37 22 62 50 53 214
170 281 200 59 27 128 71 248 157 23 17 74 46 113 66 l73 37 66 -16 c117 -27
185 -36 270 -33 98 2 112 -8 112 -81 0 -26 15 -83 36 -140 34 -91 45 -161 33
-217 -4 -19 2 -20 76 -21 44 0 109 -4 144 -9 82 -10 81 9 -3 42 -32 12 -65 28
-73 35 -30 25 -43 79 -68 271 -13 105 -28 202 -32 215 -11 30 -99 67 -208 87
-91 17 -144 33 -162 47 -17 14 -16 53 1 104 8 22 22 78 32 124 13 69 14 93 5
133 -14 62 -7 72 66 93 30 9 74 25 98 35 24 11 88 26 143 34 55 8 119 22 142
30 23 8 66 15 94 15 53 0 135 37 166 76 14 16 13 17 -20 10 -120 -26 -196 -35
-277 -36 -51 0 -139 -7 -196 -15 -58 -9 -108 -15 -113 -14 -5 1 -16 0 -24 -4
-13 -5 -97 -13 -204 -20 -16 -1 -31 4 -33 11 -3 6 2 12 11 12 19 0 26 12 33
58 8 55 6 67 -15 116 -34 75 -115 99 -183 53z"/>
<path d="M36 1885 c12 -185 99 -474 209 -695 41 -82 160 -262 233 -354 98
-123 267 -285 382 -365 339 -238 610 -354 995 -427 140 -26 614 -32 782 -9
397 53 804 225 1102 466 246 198 473 469 577 687 85 180 122 270 140 337 23
86 15 93 -16 15 -102 -254 -252 -481 -455 -686 -278 -280 -585 -463 -997 -593
-302 -95 -711 -123 -1058 -71 -601 89 -1127 387 -1487 845 -195 248 -324 521
-387 820 l-26 120 6 -90z"/>
<path d="M1091 1655 c-96 -43 -141 -177 -92 -273 24 -47 46 -66 101 -91 37
-16 55 -18 104 -11 32 5 68 5 80 1 11 -5 36 -6 54 -4 42 7 46 24 40 163 -4
100 -7 112 -33 150 -16 23 -42 49 -59 57 -44 23 -153 27 -195 8z m162 -116
c19 -24 23 -89 7 -120 -18 -33 -66 -52 -104 -39 -66 22 -96 77 -72 135 27 64
125 78 169 24z"/>
<path d="M1374 1662 c-6 -4 -15 -17 -19 -30 -5 -19 -3 -25 14 -29 20 -5 21
-11 21 -164 l0 -159 44 0 c54 0 59 10 53 107 -6 95 1 138 30 169 20 22 30 25
56 20 55 -11 59 -22 61 -160 1 -138 5 -148 58 -141 15 2 32 6 37 9 5 3 10 58
10 123 2 106 -1 121 -24 169 -37 76 -80 94 -222 94 -60 0 -113 -4 -119 -8z"/>
<path d="M2055 1656 c-40 -17 -95 -72 -111 -113 -31 -74 -7 -153 67 -217 46
-39 101 -53 173 -42 25 4 53 2 67 -4 17 -8 33 -8 51 -1 25 9 26 13 30 108 2
54 0 116 -5 138 -21 107 -167 177 -272 131z m133 -94 c32 -25 53 -89 39 -121
-17 -41 -27 -50 -64 -60 -68 -19 -133 29 -133 97 0 48 55 102 102 102 18 0 43
-8 56 -18z"/>
<path d="M2390 1648 c-28 -30 -34 -58 -35 -159 0 -78 2 -88 27 -122 42 -55 82
-78 144 -84 64 -7 60 -19 -18 -47 -46 -17 -48 -19 -48 -57 0 -51 16 -57 88
-35 99 32 181 128 198 234 l7 42 27 -43 c40 -64 91 -92 165 -92 36 1 72 7 91
17 37 20 94 77 94 95 0 23 15 14 52 -31 50 -59 114 -89 177 -84 l49 5 -28 -27
c-24 -23 -27 -31 -21 -61 6 -29 11 -33 32 -31 35 5 83 37 111 75 26 34 52 101
45 114 -2 5 -1 31 3 58 5 34 8 40 9 20 1 -38 88 -127 140 -144 43 -14 93 -14
124 0 19 8 31 8 54 -4 24 -13 34 -13 54 -4 22 12 24 19 27 101 5 156 -39 245
-135 274 -57 17 -94 15 -146 -7 -56 -24 -98 -76 -114 -138 l-11 -48 -1 80 c-2
116 -5 125 -52 125 -32 0 -41 -5 -52 -27 -8 -18 -11 -39 -6 -58 22 -94 -1
-176 -57 -202 -83 -40 -173 53 -131 134 23 43 39 53 96 60 50 6 51 6 51 39 0
45 -21 54 -119 54 -71 0 -82 -2 -95 -22 -11 -15 -12 -25 -5 -34 8 -9 7 -17 -1
-26 -6 -7 -16 -21 -23 -31 -11 -16 -15 -14 -45 28 -49 69 -146 102 -227 75
-41 -14 -115 -75 -115 -95 0 -7 -6 -17 -13 -23 -9 -8 -11 -1 -8 34 6 76 -3 94
-48 94 l-38 0 -8 -102 c-4 -57 -13 -117 -20 -135 -27 -63 -117 -80 -162 -30
-49 53 -33 133 32 164 32 15 35 20 35 60 l0 43 -65 0 c-54 0 -68 -4 -85 -22z
m631 -107 c44 -44 48 -70 18 -112 -44 -62 -107 -72 -158 -26 -50 46 -47 115 6
157 42 33 89 27 134 -19z m812 -1 c50 -56 24 -143 -48 -156 -16 -3 -31 -7 -34
-9 -6 -7 -55 21 -75 43 -21 24 -24 79 -6 112 15 29 68 51 105 45 17 -3 42 -19
58 -35z"/>
<path d="M1805 1638 c-2 -7 -6 -83 -7 -169 -3 -176 -9 -190 -78 -209 -37 -10
-60 -40 -60 -80 0 -17 7 -20 48 -20 68 1 131 36 162 91 23 41 25 54 28 213 3
133 1 171 -10 177 -20 13 -78 11 -83 -3z"/>
</g>
</svg>
