<?xml version="1.0" standalone="no"?>
<!DOCTYPE svg PUBLIC "-//W3C//DTD SVG 20010904//EN"
 "http://www.w3.org/TR/2001/REC-SVG-20010904/DTD/svg10.dtd">
<svg version="1.0" xmlns="http://www.w3.org/2000/svg"
 width="450.000000pt" height="450.000000pt" viewBox="0 0 450.000000 450.000000"
 preserveAspectRatio="xMidYMid meet">
<metadata>
Created by potrace 1.16, written by Peter Selinger 2001-2019
</metadata>
<g transform="translate(0.000000,450.000000) scale(0.100000,-0.100000)"
fill="#000000" stroke="none">
<path d="M1965 4290 c-435 -49 -863 -250 -1163 -547 -90 -89 -101 -101 -37
-43 382 349 813 539 1313 580 153 12 358 0 516 -30 59 -12 114 -23 124 -26 14
-5 14 -4 2 4 -17 11 -85 26 -210 48 -103 18 -435 26 -545 14z"/>
<path d="M2070 4240 c-290 -20 -513 -83 -778 -221 -226 -118 -414 -257 -456
-337 -18 -35 -13 -60 8 -43 9 7 16 7 24 -1 8 -8 18 -5 38 11 15 11 23 21 19
21 -4 0 4 9 18 20 14 11 28 20 32 20 4 0 42 26 84 58 164 125 293 201 464 272
231 96 535 160 761 160 46 0 57 3 53 14 -4 10 2 16 16 19 12 2 -5 5 -38 6 -33
1 -76 3 -95 5 -19 2 -87 0 -150 -4z"/>
<path d="M600 3528 c-481 -576 -576 -1405 -241 -2092 302 -620 930 -1057 1616
-1127 208 -21 539 1 705 47 174 48 326 101 317 111 -3 2 -28 -5 -56 -17 -83
-32 -268 -79 -386 -96 -155 -23 -438 -24 -574 -1 -420 71 -763 226 -1041 469
-284 248 -500 625 -589 1025 -107 481 -29 961 224 1388 27 44 48 87 48 95 0 8
4 21 10 28 5 6 6 12 3 12 -4 0 0 7 8 16 9 8 16 25 16 37 0 18 2 19 10 7 6 -9
10 -10 10 -3 0 21 -16 22 -48 3 -27 -17 -32 -17 -32 -5 0 23 -46 -33 -135
-165 -95 -141 -106 -153 -65 -70 57 114 111 201 191 307 44 57 77 103 74 103
-2 0 -32 -33 -65 -72z"/>
<path d="M1197 3019 c-49 -28 -135 -141 -300 -388 -60 -92 -117 -169 -126
-172 -9 -3 -59 -9 -111 -12 -90 -6 -154 -20 -174 -38 -5 -4 15 -29 43 -56 47
-43 53 -54 63 -111 l12 -64 -57 -111 c-58 -114 -71 -156 -50 -164 7 -2 38 51
76 129 87 181 182 348 214 377 25 22 33 23 113 18 47 -3 95 -9 108 -13 24 -7
31 10 7 20 -8 3 -55 8 -105 12 -49 4 -90 11 -90 16 0 16 217 333 295 430 76
95 97 114 117 102 25 -16 -19 -194 -131 -542 -93 -288 -135 -431 -128 -439 10
-9 24 6 30 29 2 13 39 123 81 246 147 429 199 638 176 707 -12 36 -30 43 -63
24z m-449 -611 c-8 -13 -38 -62 -67 -110 -30 -49 -55 -88 -57 -88 -2 0 -8 19
-15 43 -11 42 -51 105 -76 120 -46 28 26 53 161 56 l68 1 -14 -22z"/>
<path d="M2670 2964 c-101 -21 -185 -68 -225 -122 -94 -129 -84 -292 31 -534
59 -125 73 -179 56 -226 -13 -38 0 -102 25 -120 27 -19 46 11 39 63 -20 140
-21 131 37 275 l55 135 104 -4 c114 -4 247 17 324 49 212 91 221 278 19 402
-61 38 -151 68 -245 84 -103 17 -136 17 -220 -2z m271 -23 c274 -70 397 -240
264 -367 -72 -69 -232 -114 -407 -114 -68 0 -78 2 -78 18 0 10 32 83 71 162
116 237 136 287 97 243 -23 -26 -164 -283 -210 -383 -37 -80 -96 -216 -119
-278 -10 -25 -13 -21 -64 86 -30 62 -64 142 -75 178 -37 122 -22 257 39 342
81 110 295 161 482 113z"/>
<path d="M1752 2488 c-16 -40 -33 -82 -36 -94 -6 -21 -122 -140 -165 -170 -12
-9 -39 -20 -58 -24 -46 -11 -51 6 -24 72 46 110 16 138 -101 95 -35 -14 -83
-34 -106 -46 -23 -12 -42 -17 -42 -11 0 6 11 43 25 82 26 75 21 112 -9 65 -19
-28 -56 -129 -56 -152 0 -29 28 -27 104 9 91 43 162 64 175 51 6 -6 0 -34 -16
-73 -33 -82 -27 -112 24 -112 40 0 109 39 158 90 16 16 35 30 42 30 26 0 -57
-138 -132 -220 -106 -118 -159 -232 -123 -268 19 -19 34 -14 69 20 57 58 164
247 219 388 104 269 124 340 97 340 -9 0 -26 -27 -45 -72z"/>
<path d="M1963 2529 c-73 -36 -160 -198 -133 -248 22 -42 52 -26 159 86 57 58
110 117 118 130 15 23 53 32 53 13 0 -5 -14 -32 -30 -60 -35 -59 -80 -163 -80
-183 0 -8 6 -20 14 -26 12 -10 25 -7 63 14 64 36 118 75 178 129 84 74 46 60
-62 -24 -90 -70 -151 -110 -168 -110 -19 0 13 89 88 238 18 37 19 45 7 52 -10
6 -26 2 -48 -12 l-33 -20 -23 21 c-28 26 -50 26 -103 0z m101 -18 c16 -17 13
-23 -69 -114 -88 -100 -117 -122 -140 -113 -37 14 60 180 129 221 49 30 58 30
80 6z"/>
<path d="M3311 2517 c-39 -63 -91 -188 -91 -218 0 -31 26 -42 36 -14 8 19 182
174 211 188 19 9 29 4 67 -31 28 -26 62 -46 90 -53 65 -16 72 -28 50 -86 -13
-32 -18 -74 -18 -133 0 -75 4 -93 32 -151 34 -71 103 -144 168 -177 86 -43
218 -51 300 -17 21 8 36 9 48 3 10 -5 19 -8 20 -6 1 1 13 20 25 40 20 34 96
103 112 103 16 0 21 15 10 29 -10 11 -10 20 -1 37 21 38 31 159 19 219 -23
114 -106 217 -217 268 -47 22 -71 26 -142 26 -53 0 -102 -6 -130 -17 -32 -12
-48 -13 -57 -5 -8 6 -15 9 -16 7 -2 -2 -16 -25 -32 -50 -15 -25 -43 -56 -61
-68 -29 -20 -40 -22 -85 -16 -45 6 -61 15 -105 57 -37 35 -58 48 -71 44 -10
-3 -54 -37 -98 -76 -44 -38 -84 -70 -89 -70 -10 0 -6 16 33 109 34 80 29 117
-8 58z m860 -20 c124 -58 198 -165 207 -301 4 -72 -18 -176 -38 -176 -23 0
-28 28 -14 70 37 105 -15 260 -110 332 -63 46 -155 73 -227 65 -28 -4 -57 -11
-64 -17 -10 -8 -19 -8 -34 0 -38 20 -24 31 64 54 47 12 163 -3 216 -27z m-311
-3 c0 -14 -42 -74 -58 -83 -9 -5 -14 -12 -11 -15 3 -4 23 10 43 29 21 19 42
35 47 35 21 0 6 -28 -30 -55 -21 -17 -49 -44 -61 -62 -13 -18 -26 -33 -31 -33
-15 0 -10 32 8 52 24 26 10 22 -21 -7 -23 -21 -25 -28 -16 -46 9 -15 8 -24 -2
-36 -9 -11 -13 -44 -12 -97 1 -88 23 -148 81 -216 32 -38 128 -86 190 -96 67
-10 158 13 172 42 6 13 15 24 21 24 15 0 88 78 95 101 8 23 21 24 29 3 4 -10
-1 -25 -10 -36 -10 -10 -15 -21 -11 -24 9 -9 27 5 27 22 0 16 2 16 24 8 19 -7
21 -34 3 -34 -8 0 -38 -27 -68 -60 -30 -33 -60 -60 -66 -60 -20 0 -15 28 7 40
11 6 20 15 20 21 0 6 -13 2 -30 -8 -19 -11 -30 -25 -30 -39 0 -19 -9 -24 -53
-35 -170 -37 -326 33 -408 183 -32 60 -34 68 -34 163 0 76 4 108 18 134 9 19
17 41 17 50 0 9 16 27 35 41 19 14 46 42 60 63 22 32 55 51 55 31z m295 -54
c102 -49 157 -138 163 -261 4 -70 2 -77 -20 -95 -13 -10 -34 -36 -47 -57 -28
-45 -68 -85 -95 -93 -11 -4 -28 -16 -37 -28 -15 -18 -28 -21 -101 -21 -78 0
-88 2 -142 35 -67 41 -111 95 -131 164 -24 78 -17 186 11 186 8 0 19 11 24 24
14 37 69 95 112 117 21 11 38 26 38 34 0 33 154 29 225 -5z"/>
</g>
</svg>
